<svg width="78" height="72" viewBox="0 0 78 72" fill="none" xmlns="http://www.w3.org/2000/svg">
<path fill-rule="evenodd" clip-rule="evenodd" d="M28.8771 38.8514C31.5737 38.8514 33.7597 36.6654 33.7597 33.9687C33.7597 31.2721 31.5737 29.0861 28.8771 29.0861C26.1805 29.0861 23.9945 31.2721 23.9945 33.9687C23.9945 36.6654 26.1805 38.8514 28.8771 38.8514ZM28.8074 36.3403C30.1557 36.3403 31.2487 35.2473 31.2487 33.899C31.2487 32.5507 30.1557 31.4577 28.8074 31.4577C27.4591 31.4577 26.366 32.5507 26.366 33.899C26.366 35.2473 27.4591 36.3403 28.8074 36.3403Z" fill="white"/>
<path d="M28.8074 64.9386C28.8074 62.4346 30.8372 60.4047 33.3412 60.4047H37.3868C37.6565 60.4047 37.8751 60.6233 37.8751 60.893V71.0767C37.8751 71.3464 37.6565 71.565 37.3868 71.565H33.3412C30.8372 71.565 28.8074 69.5351 28.8074 67.0311V64.9386Z" fill="white"/>
<path d="M37.8751 64.1015V62.2182H42.1997V64.1015H37.8751Z" fill="white"/>
<path d="M42.1997 62.2182C42.328 62.2182 42.4549 62.2426 42.5734 62.2899C42.6919 62.3373 42.7996 62.4066 42.8902 62.4941C42.9809 62.5815 43.0528 62.6853 43.1019 62.7995C43.151 62.9138 43.1762 63.0362 43.1762 63.1599C43.1762 63.2836 43.151 63.406 43.1019 63.5203C43.0528 63.6345 42.9809 63.7383 42.8902 63.8257C42.7996 63.9132 42.6919 63.9825 42.5734 64.0299C42.4549 64.0772 42.328 64.1015 42.1997 64.1015V62.2182Z" fill="white"/>
<path d="M37.8751 70.0305V68.1472H42.1997V70.0305H37.8751Z" fill="white"/>
<path d="M42.1997 68.1472C42.328 68.1472 42.4549 68.1715 42.5734 68.2188C42.6919 68.2662 42.7996 68.3355 42.8902 68.423C42.9809 68.5104 43.0528 68.6142 43.1019 68.7285C43.151 68.8427 43.1762 68.9651 43.1762 69.0888C43.1762 69.2125 43.151 69.3349 43.1019 69.4492C43.0528 69.5634 42.9809 69.6672 42.8902 69.7547C42.7996 69.8421 42.6919 69.9115 42.5734 69.9588C42.4549 70.0061 42.328 70.0305 42.1997 70.0305V68.1472Z" fill="white"/>
<path d="M15.2642 34.7248C18.8746 31.1144 23.7713 29.0861 28.8771 29.0861L28.8771 31.4587C28.8539 31.458 28.8307 31.4577 28.8074 31.4577C27.9799 31.4577 27.2485 31.8694 26.807 32.4991C23.3345 32.9529 20.0857 34.5395 17.5824 37.0429C15.0509 39.5744 13.4569 42.8681 13.0237 46.3846H9.72485C10.1722 41.9962 12.1172 37.8718 15.2642 34.7248Z" fill="white"/>
<path d="M10.1175 52.6622C10.922 56.1517 12.6914 59.3777 15.2642 61.9505C18.8746 65.5609 23.7713 67.5891 28.8771 67.5891V64.3108C24.6407 64.3108 20.5779 62.6279 17.5824 59.6324C15.6299 57.6799 14.2351 55.274 13.5005 52.6622H10.1175Z" fill="white"/>
<path d="M74.1704 35.3936C75.3763 35.6526 76.5904 36.0854 77.7435 36.6673L76.3922 39.345C75.6399 38.9653 74.8575 38.6635 74.0898 38.4567C73.3221 38.2499 72.584 38.1422 71.9178 38.1398C71.2516 38.1373 70.6702 38.2402 70.2069 38.4424C69.7437 38.6447 69.4075 38.9424 69.2177 39.3186C69.0279 39.6947 68.9881 40.142 69.1006 40.6348C69.2132 41.1277 69.4758 41.6564 69.8736 42.1909C70.2713 42.7253 70.7964 43.255 71.4189 43.7497C72.0413 44.2444 72.7489 44.6944 73.5013 45.0741L72.1501 47.7518C70.997 47.17 69.9276 46.4504 69.0028 45.6344C68.0781 44.8183 67.3161 43.9216 66.7605 42.9955C66.2048 42.0694 65.8664 41.1321 65.7644 40.237C65.6625 39.3419 65.7991 38.5066 66.1663 37.7788C66.5336 37.051 67.1244 36.4449 67.9049 35.9952C68.6855 35.5454 69.6406 35.2608 70.7156 35.1576C71.7907 35.0544 72.9646 35.1346 74.1704 35.3936Z" fill="white"/>
<path d="M68.1258 36.6021C67.9466 36.3939 67.728 36.223 67.4827 36.0992L62.5009 33.5853C62.7462 33.7091 62.9647 33.88 63.144 34.0883C63.3233 34.2965 63.4598 34.5381 63.5458 34.7991C63.6317 35.0601 63.6654 35.3355 63.6449 35.6095C63.6244 35.8835 63.5501 36.1508 63.4263 36.3962C63.3025 36.6415 63.1316 36.8601 62.9234 37.0393C62.7151 37.2186 62.4736 37.3551 62.2126 37.4411C61.9515 37.527 61.6762 37.5607 61.4021 37.5402C61.1298 37.5198 60.8642 37.4464 60.6201 37.324L65.5973 39.8355C65.8426 39.9593 66.1099 40.0336 66.3839 40.0541C66.658 40.0746 66.9334 40.0409 67.1944 39.955C67.4554 39.869 67.6969 39.7325 67.9052 39.5532C68.1134 39.3739 68.2843 39.1554 68.4081 38.9101C68.5319 38.6647 68.6062 38.3974 68.6267 38.1234C68.6472 37.8494 68.6135 37.574 68.5276 37.313C68.4416 37.0519 68.3051 36.8104 68.1258 36.6021Z" fill="white"/>
<path d="M62.0854 33.5541C61.9061 33.3458 61.6876 33.1749 61.4422 33.0511L57.5838 31.1041L57.2581 31.2436C57.3628 31.4005 57.4461 31.5711 57.5053 31.751C57.5912 32.012 57.6249 32.2874 57.6044 32.5614C57.5839 32.8354 57.5097 33.1028 57.3859 33.3481C57.2621 33.5934 57.0912 33.812 56.8829 33.9913C56.6747 34.1705 56.4331 34.307 56.1721 34.393C55.9111 34.4789 55.6357 34.5126 55.3617 34.4921C55.0894 34.4718 54.8237 34.3983 54.5797 34.2759L59.5568 36.7875C59.8021 36.9113 60.0695 36.9855 60.3435 37.006C60.6175 37.0265 60.8929 36.9928 61.1539 36.9069C61.4149 36.8209 61.6565 36.6844 61.8647 36.5051C62.073 36.3259 62.2439 36.1073 62.3677 35.862C62.4915 35.6166 62.5658 35.3493 62.5862 35.0753C62.6067 34.8013 62.5731 34.5259 62.4871 34.2649C62.4012 34.0039 62.2647 33.7623 62.0854 33.5541Z" fill="white"/>
<path d="M56.3273 32.8139C56.451 32.5686 56.5253 32.3012 56.5458 32.0272C56.5604 31.8316 56.5857 31.8185 56.5458 31.6272C55.7626 31.9867 54.996 32.2116 54.303 32.3945C53.2372 32.6758 52.1212 32.7084 51.5283 32.7084L52.5048 33.2664L53.2372 33.65C53.4826 33.7738 54.029 33.9374 54.303 33.9579C54.5771 33.9784 54.8525 33.9447 55.1135 33.8588C55.3745 33.7728 55.616 33.6363 55.8243 33.4571C56.0325 33.2778 56.2035 33.0592 56.3273 32.8139Z" fill="white"/>
<path d="M24.58 4.18511L5.30766 47.4715L22.9757 47.501C23.2505 47.501 23.5226 47.5551 23.7765 47.6603C24.0304 47.7655 24.2611 47.9196 24.4554 48.1139C24.6497 48.3082 24.8038 48.5389 24.909 48.7928C25.0141 49.0467 25.0683 49.3188 25.0683 49.5936C25.0683 49.8684 25.0141 50.1405 24.909 50.3944C24.8038 50.6482 24.6497 50.8789 24.4554 51.0732C24.2611 51.2675 24.0304 51.4217 23.7765 51.5268C23.5226 51.632 23.2505 51.6861 22.9757 51.6861L2.17043 51.6514C2.12629 51.653 2.08205 51.6533 2.03778 51.6521C1.76307 51.6449 1.49248 51.5837 1.24144 51.4719C0.990395 51.3601 0.763828 51.2 0.574669 51.0007C0.385511 50.8014 0.237465 50.5667 0.138986 50.3102C0.0405076 50.0536 -0.00647629 49.7802 0.000717117 49.5055C0.00791052 49.2308 0.0762338 48.932 0.188004 48.6809L20.7517 2.49413C21.0186 1.88988 21.4265 1.35347 21.9463 0.932624C22.6914 0.32925 23.6211 1.96447e-05 24.5799 0C25.5387 -1.96429e-05 26.4684 0.329173 27.2136 0.932516C27.7313 1.35173 28.1381 1.88562 28.4051 2.48703L48.972 48.6809C49.0838 48.932 49.145 49.2308 49.1522 49.5055C49.1594 49.7802 49.1124 50.0536 49.0139 50.3102C48.9154 50.5667 48.7674 50.8014 48.5782 51.0007C48.3891 51.2 48.1625 51.3602 47.9115 51.4719C47.6604 51.5837 47.3898 51.6449 47.1151 51.6521C46.8404 51.6593 46.567 51.6123 46.3104 51.5138C46.0539 51.4154 45.8192 51.2673 45.6199 51.0782C45.4206 50.889 45.2605 50.6342 45.1487 50.3832L24.58 4.18511Z" fill="white"/>
<path fill-rule="evenodd" clip-rule="evenodd" d="M57.1037 48.6359C57.2182 48.8931 57.2808 49.1703 57.2882 49.4518C57.2956 49.7332 57.2475 50.0133 57.1467 50.2762C57.0459 50.539 56.8943 50.7794 56.7007 50.9836C56.5071 51.1878 56.2752 51.3518 56.0182 51.4664C55.7612 51.5809 55.4843 51.6436 55.2031 51.651C54.9219 51.6583 54.642 51.6102 54.3794 51.5093C54.1168 51.4084 53.8766 51.2567 53.6726 51.0629C53.4686 50.8691 53.3047 50.637 53.1903 50.3798L32.1363 3.05038C32.0219 2.79319 31.9593 2.51596 31.9519 2.23453C31.9445 1.95309 31.9926 1.67297 32.0934 1.41014C32.1942 1.14731 32.3458 0.906924 32.5394 0.702711C32.733 0.498497 32.9649 0.334454 33.2219 0.219947C33.4789 0.105438 33.7558 0.0427092 34.037 0.0353394L49.8285 0.0353459C58.5231 0.035346 65.5716 7.15396 65.5716 15.9352C65.5716 24.7165 58.5231 31.8351 49.8285 31.8351C49.7621 31.8351 49.6958 31.8347 49.6296 31.8338L57.1037 48.6359ZM59.7377 12.0969C60.1339 12.5003 60.7537 12.6371 61.3007 12.3936C62.0045 12.0802 62.3211 11.2556 62.0077 10.5518C61.6943 9.84793 60.8697 9.53138 60.1658 9.84476C59.6432 10.0774 59.3342 10.5919 59.3379 11.1296L58.276 11.6024L57.0419 8.8305C54.8885 6.63999 51.8375 5.51988 48.769 5.80805L48.1446 4.40548C47.0711 4.55222 46.0002 4.85148 44.9606 5.31433C43.9211 5.77717 42.9821 6.37279 42.1547 7.07231L42.7792 8.47489C41.8287 9.34997 41.0642 10.3884 40.5106 11.5252L46.8999 25.8759C48.1152 26.2251 49.3984 26.3518 50.6847 26.231L51.3092 27.6336C52.3827 27.4868 53.4536 27.1876 54.4932 26.7247C55.5327 26.2619 56.4717 25.6663 57.299 24.9668L56.6746 23.5642C58.9419 21.4767 60.151 18.4599 59.9641 15.3938L58.7016 12.5582L59.7377 12.0969Z" fill="white"/>
<path fill-rule="evenodd" clip-rule="evenodd" d="M45.817 7.13974C46.7931 6.70514 47.7919 6.40872 48.787 6.24217L56.4301 23.409C55.6405 24.0371 54.7519 24.5809 53.7758 25.0155C52.7997 25.4501 51.801 25.7465 50.8059 25.9131L43.1627 8.74625C43.9524 8.11818 44.8409 7.57433 45.817 7.13974ZM46.0377 7.67881C46.8061 7.33668 47.6008 7.12229 48.3999 7.02654L55.5881 23.1715C54.9823 23.7013 54.2912 24.1484 53.5228 24.4905C52.7543 24.8327 51.9597 25.0471 51.1605 25.1428L43.9723 8.99784C44.5782 8.46804 45.2693 8.02094 46.0377 7.67881Z" fill="white"/>
<circle cx="48.0636" cy="11.9318" r="1.42991" transform="rotate(66 48.0636 11.9318)" fill="white"/>
<circle cx="51.6906" cy="20.3021" r="1.42991" transform="rotate(66 51.6906 20.3021)" fill="white"/>
</svg>
