<svg width="1115" height="1026" viewBox="0 0 1115 1026" fill="none" xmlns="http://www.w3.org/2000/svg">
<path fill-rule="evenodd" clip-rule="evenodd" d="M414 557C452.66 557 484 525.66 484 487C484 448.34 452.66 417 414 417C375.34 417 344 448.34 344 487C344 525.66 375.34 557 414 557ZM413 521C432.33 521 448 505.33 448 486C448 466.67 432.33 451 413 451C393.67 451 378 466.67 378 486C378 505.33 393.67 521 413 521Z" fill="#1E1E1E"/>
<path d="M413 931C413 895.101 442.101 866 478 866H536C539.866 866 543 869.134 543 873V1019C543 1022.87 539.866 1026 536 1026H478C442.101 1026 413 996.899 413 961V931Z" fill="#1E1E1E"/>
<path d="M543 919V892H605V919H543Z" fill="#1E1E1E"/>
<path d="M605 892C606.839 892 608.659 892.349 610.358 893.028C612.056 893.706 613.6 894.701 614.9 895.954C616.2 897.208 617.231 898.696 617.934 900.334C618.638 901.972 619 903.727 619 905.5C619 907.273 618.638 909.028 617.934 910.666C617.231 912.304 616.2 913.792 614.9 915.046C613.6 916.3 612.056 917.294 610.358 917.972C608.659 918.651 606.839 919 605 919V892Z" fill="#1E1E1E"/>
<path d="M543 1004V977H605V1004H543Z" fill="#1E1E1E"/>
<path d="M605 977C606.839 977 608.659 977.349 610.358 978.028C612.056 978.706 613.6 979.701 614.9 980.954C616.2 982.208 617.231 983.696 617.934 985.334C618.638 986.972 619 988.727 619 990.5C619 992.273 618.638 994.028 617.934 995.666C617.231 997.304 616.2 998.792 614.9 1000.05C613.6 1001.3 612.056 1002.29 610.358 1002.97C608.659 1003.65 606.839 1004 605 1004V977Z" fill="#1E1E1E"/>
<path d="M218.838 497.839C270.598 446.078 340.8 417 414 417L414 451.014C413.668 451.005 413.334 451 413 451C401.137 451 390.652 456.902 384.322 465.93C334.538 472.436 287.962 495.183 252.072 531.073C215.78 567.365 192.927 614.586 186.717 665H139.423C145.836 602.086 173.721 542.956 218.838 497.839Z" fill="#1E1E1E"/>
<path d="M145.053 755C156.586 805.026 181.953 851.276 218.838 888.161C270.598 939.922 340.8 969 414 969V922C353.265 922 295.018 897.873 252.072 854.927C224.081 826.936 204.084 792.444 193.552 755H145.053Z" fill="#1E1E1E"/>
<path d="M1063.35 507.419C1080.64 511.133 1098.04 517.338 1114.57 525.679L1095.2 564.069C1084.42 558.626 1073.2 554.298 1062.19 551.334C1051.19 548.369 1040.61 546.825 1031.05 546.79C1021.5 546.755 1013.17 548.229 1006.53 551.129C999.885 554.028 995.066 558.297 992.344 563.69C989.623 569.083 989.053 575.495 990.666 582.561C992.28 589.626 996.045 597.206 1001.75 604.868C1007.45 612.53 1014.98 620.124 1023.9 627.217C1032.83 634.309 1042.97 640.761 1053.76 646.204L1034.38 684.593C1017.85 676.251 1002.52 665.936 989.264 654.236C976.006 642.536 965.083 629.681 957.117 616.404C949.151 603.128 944.298 589.689 942.837 576.857C941.375 564.025 943.333 552.049 948.598 541.615C953.864 531.181 962.334 522.491 973.524 516.043C984.715 509.596 998.407 505.515 1013.82 504.035C1029.23 502.556 1046.06 503.705 1063.35 507.419Z" fill="#1E1E1E"/>
<path d="M976.691 524.746C974.121 521.76 970.988 519.31 967.47 517.535L896.048 481.494C899.566 483.269 902.699 485.72 905.269 488.705C907.839 491.691 909.797 495.154 911.029 498.896C912.261 502.638 912.744 506.586 912.45 510.515C912.156 514.443 911.091 518.276 909.317 521.793C907.542 525.31 905.091 528.443 902.106 531.014C899.12 533.584 895.657 535.541 891.915 536.773C888.173 538.005 884.225 538.488 880.296 538.194C876.393 537.902 872.584 536.849 869.085 535.095L940.44 571.101C943.957 572.876 947.79 573.941 951.718 574.235C955.647 574.528 959.595 574.045 963.337 572.813C967.079 571.581 970.542 569.624 973.528 567.054C976.513 564.484 978.964 561.35 980.738 557.833C982.513 554.316 983.578 550.484 983.872 546.555C984.165 542.626 983.683 538.678 982.45 534.936C981.218 531.194 979.261 527.731 976.691 524.746Z" fill="#1E1E1E"/>
<path d="M890.092 481.047C887.522 478.061 884.389 475.611 880.871 473.836L825.555 445.923L820.886 447.923C822.387 450.172 823.58 452.618 824.429 455.197C825.662 458.939 826.144 462.887 825.851 466.816C825.557 470.744 824.492 474.577 822.717 478.094C820.943 481.611 818.492 484.744 815.507 487.315C812.521 489.885 809.058 491.842 805.316 493.074C801.574 494.306 797.626 494.789 793.697 494.495C789.794 494.203 785.985 493.15 782.486 491.396L853.841 527.402C857.358 529.177 861.191 530.242 865.119 530.536C869.048 530.829 872.996 530.346 876.738 529.114C880.48 527.882 883.943 525.925 886.929 523.355C889.914 520.785 892.365 517.651 894.139 514.134C895.914 510.617 896.979 506.785 897.273 502.856C897.566 498.927 897.083 494.979 895.851 491.237C894.619 487.495 892.662 484.032 890.092 481.047Z" fill="#1E1E1E"/>
<path d="M807.54 470.435C809.315 466.918 810.38 463.086 810.674 459.157C810.883 456.353 811.245 456.165 810.674 453.422C799.446 458.577 788.455 461.8 778.52 464.422C763.24 468.455 747.24 468.923 738.74 468.923L752.74 476.923L763.24 482.423C766.757 484.197 774.592 486.543 778.52 486.837C782.449 487.13 786.397 486.647 790.139 485.415C793.881 484.183 797.344 482.226 800.33 479.656C803.315 477.086 805.765 473.952 807.54 470.435Z" fill="#1E1E1E"/>
<path d="M352.392 60L76.0935 680.577L329.392 681C333.332 681 337.233 681.776 340.873 683.284C344.512 684.791 347.82 687.001 350.605 689.787C353.391 692.573 355.601 695.88 357.109 699.52C358.616 703.159 359.392 707.06 359.392 711C359.392 714.94 358.616 718.841 357.109 722.481C355.601 726.12 353.391 729.428 350.605 732.213C347.82 734.999 344.512 737.209 340.873 738.716C337.233 740.224 333.332 741 329.392 741L31.1171 740.502C30.4841 740.525 29.8496 740.529 29.2147 740.512C25.2764 740.409 21.397 739.531 17.7979 737.929C14.1988 736.327 10.9506 734.031 8.23877 731.173C5.52689 728.316 3.40443 724.952 1.99259 721.274C0.580739 717.596 -0.0928476 713.676 0.010281 709.737C0.11341 705.799 1.09293 701.515 2.69533 697.916L297.507 35.7577C301.334 27.0946 307.182 19.4042 314.633 13.3706C325.316 4.72031 338.645 0.000281637 352.391 0C366.136 -0.000281612 379.465 4.7192 390.148 13.3691C397.564 19.3736 403.393 27.0194 407.221 35.6318L702.089 697.916C703.691 701.515 704.569 705.799 704.672 709.737C704.775 713.676 704.102 717.596 702.69 721.274C701.278 724.952 699.155 728.316 696.444 731.173C693.732 734.031 690.483 736.327 686.884 737.929C683.285 739.532 679.406 740.409 675.468 740.513C671.529 740.616 667.609 739.942 663.931 738.53C660.253 737.118 656.889 734.996 654.032 732.284C651.174 729.572 648.878 725.919 647.276 722.32L352.392 60Z" fill="#1E1E1E"/>
<path fill-rule="evenodd" clip-rule="evenodd" d="M818.671 697.285C820.311 700.972 821.21 704.946 821.316 708.981C821.421 713.016 820.732 717.032 819.286 720.8C817.841 724.568 815.669 728.014 812.893 730.942C810.117 733.87 806.792 736.222 803.108 737.863C799.424 739.505 795.453 740.404 791.422 740.51C787.391 740.616 783.378 739.925 779.614 738.479C775.849 737.033 772.406 734.858 769.48 732.08C766.555 729.302 764.206 725.974 762.565 722.286L460.725 43.7458C459.085 40.0586 458.186 36.084 458.081 32.0492C457.975 28.0145 458.665 23.9984 460.11 20.2303C461.555 16.4623 463.728 13.016 466.503 10.0883C469.279 7.16059 472.604 4.80878 476.288 3.16714C479.972 1.52548 483.943 0.626165 487.974 0.520508L714.369 0.520601C839.02 0.520603 940.07 102.577 940.07 228.47C940.07 354.362 839.02 456.419 714.369 456.419C713.417 456.419 712.466 456.413 711.517 456.401L818.671 697.285ZM856.432 173.442C862.113 179.225 870.999 181.186 878.84 177.695C888.931 173.203 893.469 161.381 888.977 151.29C884.484 141.199 872.662 136.661 862.571 141.154C855.079 144.489 850.648 151.866 850.701 159.574L835.478 166.352L817.785 126.613C786.912 95.2083 743.171 79.1498 699.18 83.2813L690.227 63.1731C674.838 65.277 659.485 69.5673 644.581 76.2029C629.677 82.8385 616.215 91.3776 604.354 101.406L613.307 121.515C599.68 134.06 588.72 148.947 580.782 165.246L672.383 370.984C689.807 375.992 708.204 377.808 726.645 376.076L735.598 396.184C750.987 394.08 766.341 389.79 781.244 383.154C796.148 376.519 809.61 367.98 821.471 357.951L812.518 337.843C845.024 307.916 862.359 264.664 859.679 220.708L841.579 180.055L856.432 173.442Z" fill="#1E1E1E"/>
<path fill-rule="evenodd" clip-rule="evenodd" d="M656.861 102.369C670.855 96.1387 685.173 91.8892 699.44 89.5014L809.016 335.614C797.696 344.618 784.957 352.415 770.963 358.646C756.969 364.877 742.651 369.126 728.384 371.514L618.808 125.401C630.128 116.397 642.867 108.6 656.861 102.369ZM660.022 110.101C671.039 105.196 682.431 102.123 693.888 100.75L796.942 332.213C788.256 339.809 778.349 346.218 767.332 351.123C756.315 356.028 744.923 359.102 733.466 360.475L630.412 129.011C639.098 121.416 649.005 115.006 660.022 110.101Z" fill="#1E1E1E"/>
<circle cx="689.066" cy="171.066" r="20.5" transform="rotate(66 689.066 171.066)" fill="#1E1E1E"/>
<circle cx="741.066" cy="291.066" r="20.5" transform="rotate(66 741.066 291.066)" fill="#1E1E1E"/>
</svg>
